# xmcd
#
# Track frame offsets:
#	150
#	29376
#	49026
#	132615
#	156969
#	182574
#	202297
#	222757
#	243213
#	286232
#
# Disc length: 4120
#
# Revision: 1
# Processed by: cddbd v1.5.1PL0 Copyright (c) Steve Scherf et al.
# Submitted via: ExactAudioCopy v0.90b4
# Normalized: r0:TRMNUM
#
DISCID=9410160a
DTITLE=Stevie Ray Vaughan - Let The Good Times Roll [CD 2)
DYEAR=1985
DGENRE=Blues
TTITLE0=Texas Flood
TTITLE1=Love Struck Baby
TTITLE2=Unreleased Song
TTITLE3=Little Sister
TTITLE4=Let The Good Times Roll
TTITLE5=Mary Had A Little Lamb
TTITLE6=Superstition
TTITLE7=Willie The Wimp
TTITLE8=Voodoo Chile
TTITLE9=Change It
EXTD=
EXTT0=
EXTT1=
EXTT2=
EXTT3=
EXTT4=
EXTT5=
EXTT6=
EXTT7=
EXTT8=
EXTT9=
PLAYORDER=
